<svg width="19" height="11" viewBox="0 0 19 11" fill="none" xmlns="http://www.w3.org/2000/svg">
<path d="M10.456 0.955064C10.6673 0.753898 10.9485 0.642685 11.2402 0.644892C11.5319 0.6471 11.8114 0.762555 12.0196 0.966896C12.2279 1.17124 12.3486 1.44848 12.3563 1.74013C12.364 2.03177 12.2581 2.31501 12.061 2.53006L6.07597 10.0151C5.97305 10.1259 5.84885 10.2149 5.71077 10.2766C5.57269 10.3384 5.42357 10.3716 5.27235 10.3744C5.12112 10.3772 4.97087 10.3495 4.8306 10.2929C4.69033 10.2363 4.56292 10.152 4.45597 10.0451L0.486968 6.07607C0.376438 5.97307 0.287785 5.84887 0.226297 5.71087C0.164809 5.57287 0.131747 5.4239 0.129081 5.27285C0.126416 5.12179 0.154203 4.97175 0.210785 4.83167C0.267366 4.69159 0.351583 4.56434 0.458411 4.45751C0.565239 4.35068 0.69249 4.26646 0.832572 4.20988C0.972654 4.1533 1.1227 4.12551 1.27375 4.12818C1.42481 4.13084 1.57378 4.16391 1.71178 4.22539C1.84977 4.28688 1.97398 4.37553 2.07697 4.48606L5.21797 7.62556L10.426 0.988065C10.4353 0.976484 10.4453 0.965464 10.456 0.955064ZM9.07597 8.66506L10.456 10.0451C10.5629 10.1518 10.6902 10.2359 10.8303 10.2923C10.9705 10.3488 11.1205 10.3765 11.2716 10.3737C11.4226 10.3709 11.5716 10.3377 11.7095 10.2761C11.8475 10.2144 11.9716 10.1257 12.0745 10.0151L18.0625 2.53006C18.17 2.42387 18.2551 2.29708 18.3126 2.15728C18.3701 2.01748 18.3988 1.86752 18.397 1.71638C18.3952 1.56523 18.363 1.41599 18.3023 1.27756C18.2416 1.13914 18.1536 1.01437 18.0436 0.910709C17.9336 0.807048 17.8038 0.72662 17.662 0.674229C17.5202 0.621837 17.3693 0.598556 17.2183 0.605776C17.0674 0.612997 16.9194 0.65057 16.7832 0.716253C16.6471 0.781935 16.5256 0.874379 16.426 0.988065L11.2165 7.62556L10.489 6.89656L9.07447 8.66506H9.07597Z" fill="url(#paint0_linear_88_127)"/>
<defs>
<linearGradient id="paint0_linear_88_127" x1="23.4852" y1="9.88284" x2="11.0628" y2="-7.61632" gradientUnits="userSpaceOnUse">
<stop stop-color="#51C8EF"/>
<stop offset="1" stop-color="#7AF57A"/>
</linearGradient>
</defs>
</svg>
