<svg width="49" height="48" viewBox="0 0 49 48" fill="none" xmlns="http://www.w3.org/2000/svg">
<path d="M20.5719 3.62812C20.5156 3.825 20.3469 4.52812 20.1875 5.20312C20.0281 5.86875 19.8594 6.55312 19.8031 6.72187C19.7 7.05 19.5875 7.09687 18.3594 7.35938C17.9469 7.45312 17.2531 7.64062 16.8125 7.79062C16.3813 7.94062 15.9594 8.04375 15.875 8.01562C15.8 7.9875 15.1906 7.3875 14.5156 6.68437C13.85 5.97187 13.2781 5.38125 13.2406 5.3625C13.175 5.33437 10.7563 6.68437 10.5969 6.83437C10.5594 6.87187 10.7656 7.70625 11.0563 8.69062L11.5906 10.4812L10.1656 11.8969C9.25625 12.8156 8.68438 13.3125 8.5625 13.3125C8.45 13.3125 7.6625 13.0969 6.80938 12.8437C5.95625 12.5812 5.19688 12.375 5.13125 12.375C5.06563 12.375 4.67188 12.975 4.25938 13.6969L3.5 15.0187L4.55 16.0219C6.15313 17.5312 6.21875 17.5969 6.21875 17.7469C6.21875 17.8219 6.09688 18.2625 5.94688 18.7219C5.79688 19.1719 5.60938 19.8844 5.51563 20.2969C5.29063 21.3844 5.21563 21.5437 4.86875 21.6375C4.70938 21.6844 3.89375 21.8812 3.05938 22.0781L1.53125 22.4437V24V25.5656L3.275 25.9781C4.24063 26.2031 5.075 26.4281 5.15 26.4844C5.21563 26.5312 5.35625 26.9812 5.46875 27.4688C5.57188 27.9562 5.7875 28.7719 5.94688 29.2781C6.09688 29.7844 6.2 30.2812 6.17188 30.375C6.14375 30.4781 5.98438 30.6656 5.81563 30.8062C5.64688 30.9469 5.06563 31.4906 4.50313 32.0156L3.5 32.9812L4.25938 34.3031C4.67188 35.025 5.06563 35.625 5.14063 35.625C5.23438 35.625 6.21875 35.3344 8.4875 34.6312C8.6 34.6031 9.07813 35.0156 10.1094 36.0375L11.5813 37.5L11.0563 39.2719C10.7656 40.2469 10.5312 41.0625 10.5312 41.0906C10.5312 41.1187 11.1313 41.4844 11.8625 41.9062L13.2031 42.675L14.525 41.2875L15.8469 39.9L16.8219 40.2C17.3563 40.3687 18.2 40.5844 18.6875 40.6969C19.1844 40.8 19.625 40.95 19.6906 41.025C19.7844 41.1562 20.5625 44.25 20.5625 44.5031C20.5625 44.5969 20.8344 44.625 21.5938 44.625H22.625V40.5562V36.4969L21.4344 36.4406C15.8563 36.1875 11.1313 32.0812 9.9125 26.4375C9.70625 25.4812 9.63125 23.3719 9.77188 22.3969C10.3625 18.225 12.8938 14.6812 16.5969 12.8062C18.0781 12.0656 19.8313 11.6062 21.6688 11.475L22.625 11.4094V7.35V3.28125H21.6406H20.6656L20.5719 3.62812Z" fill="url(#paint0_linear_81_27641)"/>
<path d="M34.6434 4.18127C32.9746 5.00627 32.984 7.46252 34.6527 8.31565C35.6277 8.81252 36.9496 8.54065 37.5871 7.71565C38.5059 6.50627 38.084 4.7344 36.734 4.11564C36.1527 3.84377 35.2527 3.88127 34.6434 4.18127Z" fill="url(#paint1_linear_81_27641)"/>
<path d="M23.5625 6.23438V6.84375H27.9969H32.4219V6.23438V5.625H27.9969H23.5625V6.23438Z" fill="url(#paint2_linear_81_27641)"/>
<path d="M41.3472 11.1187C40.0534 11.5219 39.4159 13.1719 40.0534 14.4187C40.7566 15.7875 42.7066 16.0875 43.8034 14.9906C44.9003 13.8937 44.6003 11.9437 43.2316 11.2406C42.7441 10.9875 41.9097 10.9312 41.3472 11.1187Z" fill="url(#paint3_linear_81_27641)"/>
<path d="M20.9377 12.5344C20.2252 12.6094 19.0721 12.8813 18.3127 13.1438C14.5064 14.4844 11.7314 17.7094 10.8502 21.7969C10.6346 22.8282 10.6346 25.1719 10.8502 26.2032C11.3564 28.5375 12.3783 30.4594 13.9814 32.0907C16.9252 35.0719 21.1346 36.1969 25.2689 35.1C26.3283 34.8188 28.1377 33.9375 29.0471 33.2625C31.9814 31.0688 33.6877 27.6563 33.6877 24C33.6877 20.9063 32.4971 18.0094 30.3127 15.8438C28.5408 14.0813 26.3752 12.9938 23.8439 12.6094C23.0283 12.4782 21.7346 12.45 20.9377 12.5344ZM24.2096 15.9469C25.1471 16.1813 26.6471 16.9313 27.4064 17.5594C28.3064 18.2907 29.0471 19.2282 29.5721 20.2969C30.2564 21.675 30.4346 22.4625 30.4346 24C30.4346 25.5094 30.2564 26.3063 29.6096 27.6094C28.6064 29.6532 26.9096 31.1344 24.6877 31.8844C23.8908 32.1563 23.6564 32.1938 22.4846 32.2313C21.3689 32.2594 21.0408 32.2407 20.3377 32.0719C18.0033 31.5094 16.0533 30.0282 14.9002 27.9188C14.1596 26.5782 13.8502 25.1625 13.9346 23.5032C14.1314 19.5844 17.1783 16.3032 21.1346 15.75C21.9502 15.6375 23.3377 15.7219 24.2096 15.9469Z" fill="url(#paint4_linear_81_27641)"/>
<path d="M20.7496 16.8188C18.9778 17.2032 17.4496 18.1594 16.409 19.5282C15.8184 20.3063 15.5653 20.7844 15.2559 21.6938C14.6465 23.4844 14.8059 25.6219 15.6871 27.3751C16.0246 28.0594 16.8684 29.1094 17.4965 29.6251C18.1809 30.1876 19.5121 30.8719 20.3746 31.0969C21.2278 31.3219 23.1965 31.3219 24.0215 31.0876C26.4684 30.4126 28.3434 28.6313 29.159 26.2032C29.384 25.5282 29.4121 25.3126 29.4121 24.0469C29.4215 22.8282 29.3934 22.5469 29.2059 21.9376C28.4278 19.4626 26.5153 17.5876 24.0778 16.9219C23.2903 16.7157 21.5184 16.6594 20.7496 16.8188Z" fill="url(#paint5_linear_81_27641)"/>
<path d="M28.0625 12.9562C28.2406 13.0594 28.6438 13.3125 28.9625 13.5187L29.525 13.875H34.1844H38.8438V13.3125V12.75H33.2938H27.7344L28.0625 12.9562Z" fill="url(#paint6_linear_81_27641)"/>
<path d="M45.2283 19.0969C44.244 19.5844 44.1783 21.0938 45.1252 21.7219C45.519 21.9938 46.2502 22.0125 46.719 21.7594C47.4033 21.3938 47.6752 20.4 47.2721 19.6875C46.8877 19.0125 45.9502 18.7407 45.2283 19.0969Z" fill="url(#paint7_linear_81_27641)"/>
<path d="M34.1561 20.4094L34.3248 20.9531L38.8811 20.9812L43.4373 21V20.4375V19.875H38.7123H33.9873L34.1561 20.4094Z" fill="url(#paint8_linear_81_27641)"/>
<path d="M45.1252 26.2781C44.6752 26.5781 44.4502 27.0094 44.4502 27.5531C44.4596 28.4344 44.9658 28.9687 45.8377 29.0437C47.0471 29.1469 47.8439 27.9187 47.2814 26.8219C47.0283 26.3156 46.5877 26.0625 45.9502 26.0625C45.5658 26.0625 45.3502 26.1187 45.1252 26.2781Z" fill="url(#paint9_linear_81_27641)"/>
<path d="M34.2125 27.4406C34.1281 27.6844 34.0625 27.9375 34.0625 28.0031C34.0625 28.1062 34.925 28.125 38.75 28.125H43.4375V27.5625V27H38.9H34.3625L34.2125 27.4406Z" fill="url(#paint10_linear_81_27641)"/>
<path d="M41.1876 32.4844C40.4844 32.8032 39.9219 33.5626 39.8188 34.3594C39.5844 36.0001 41.1876 37.3688 42.8001 36.9001C44.7126 36.3469 45.0876 33.7219 43.4001 32.6719C43.0063 32.4376 42.8282 32.3907 42.2282 32.3626C41.7407 32.3532 41.4126 32.3907 41.1876 32.4844Z" fill="url(#paint11_linear_81_27641)"/>
<path d="M29.0094 34.4531C28.6813 34.6781 28.2875 34.9125 28.1469 34.9781C27.9969 35.0344 27.875 35.1187 27.875 35.1656C27.875 35.2125 30.275 35.25 33.3594 35.25H38.8438V34.6406V34.0312L34.2313 34.0406H29.6094L29.0094 34.4531Z" fill="url(#paint12_linear_81_27641)"/>
<path d="M35.2156 39.4593C33.4344 39.9093 32.8062 42.1406 34.1 43.425C34.775 44.1 35.9469 44.2687 36.8469 43.8281C38.1312 43.1812 38.4969 41.4656 37.5969 40.2843C37.1281 39.6656 35.975 39.2718 35.2156 39.4593Z" fill="url(#paint13_linear_81_27641)"/>
<path d="M23.5625 41.7656V42.375H27.9969H32.4219V41.7656V41.1562H27.9969H23.5625V41.7656Z" fill="url(#paint14_linear_81_27641)"/>
<defs>
<linearGradient id="paint0_linear_81_27641" x1="28.5001" y1="5.36231" x2="-8.79661" y2="19.6984" gradientUnits="userSpaceOnUse">
<stop stop-color="#51C8EF"/>
<stop offset="1" stop-color="#7AF57A"/>
</linearGradient>
<linearGradient id="paint1_linear_81_27641" x1="39.3812" y1="4.16542" x2="33.3675" y2="8.74383" gradientUnits="userSpaceOnUse">
<stop stop-color="#51C8EF"/>
<stop offset="1" stop-color="#7AF57A"/>
</linearGradient>
<linearGradient id="paint2_linear_81_27641" x1="34.8894" y1="5.68635" x2="34.3093" y2="8.86335" gradientUnits="userSpaceOnUse">
<stop stop-color="#51C8EF"/>
<stop offset="1" stop-color="#7AF57A"/>
</linearGradient>
<linearGradient id="paint3_linear_81_27641" x1="45.7707" y1="11.2418" x2="39.7446" y2="15.7982" gradientUnits="userSpaceOnUse">
<stop stop-color="#51C8EF"/>
<stop offset="1" stop-color="#7AF57A"/>
</linearGradient>
<linearGradient id="paint4_linear_81_27641" x1="40.0935" y1="13.6455" x2="10.2945" y2="36.07" gradientUnits="userSpaceOnUse">
<stop stop-color="#51C8EF"/>
<stop offset="1" stop-color="#7AF57A"/>
</linearGradient>
<linearGradient id="paint5_linear_81_27641" x1="33.4587" y1="17.4586" x2="14.6436" y2="31.6193" gradientUnits="userSpaceOnUse">
<stop stop-color="#51C8EF"/>
<stop offset="1" stop-color="#7AF57A"/>
</linearGradient>
<linearGradient id="paint6_linear_81_27641" x1="41.938" y1="12.8066" x2="41.5379" y2="15.7832" gradientUnits="userSpaceOnUse">
<stop stop-color="#51C8EF"/>
<stop offset="1" stop-color="#7AF57A"/>
</linearGradient>
<linearGradient id="paint7_linear_81_27641" x1="48.2985" y1="19.0907" x2="44.413" y2="22.0285" gradientUnits="userSpaceOnUse">
<stop stop-color="#51C8EF"/>
<stop offset="1" stop-color="#7AF57A"/>
</linearGradient>
<linearGradient id="paint8_linear_81_27641" x1="46.0694" y1="19.9316" x2="45.6022" y2="22.8882" gradientUnits="userSpaceOnUse">
<stop stop-color="#51C8EF"/>
<stop offset="1" stop-color="#7AF57A"/>
</linearGradient>
<linearGradient id="paint9_linear_81_27641" x1="48.3053" y1="26.2128" x2="44.4281" y2="29.1611" gradientUnits="userSpaceOnUse">
<stop stop-color="#51C8EF"/>
<stop offset="1" stop-color="#7AF57A"/>
</linearGradient>
<linearGradient id="paint10_linear_81_27641" x1="46.0487" y1="27.0566" x2="45.5779" y2="30.012" gradientUnits="userSpaceOnUse">
<stop stop-color="#51C8EF"/>
<stop offset="1" stop-color="#7AF57A"/>
</linearGradient>
<linearGradient id="paint11_linear_81_27641" x1="45.7778" y1="32.5943" x2="39.7648" y2="37.17" gradientUnits="userSpaceOnUse">
<stop stop-color="#51C8EF"/>
<stop offset="1" stop-color="#7AF57A"/>
</linearGradient>
<linearGradient id="paint12_linear_81_27641" x1="41.8988" y1="34.0926" x2="41.4249" y2="37.3056" gradientUnits="userSpaceOnUse">
<stop stop-color="#51C8EF"/>
<stop offset="1" stop-color="#7AF57A"/>
</linearGradient>
<linearGradient id="paint13_linear_81_27641" x1="39.3971" y1="39.6469" x2="33.3576" y2="44.2164" gradientUnits="userSpaceOnUse">
<stop stop-color="#51C8EF"/>
<stop offset="1" stop-color="#7AF57A"/>
</linearGradient>
<linearGradient id="paint14_linear_81_27641" x1="34.8894" y1="41.2176" x2="34.3093" y2="44.3946" gradientUnits="userSpaceOnUse">
<stop stop-color="#51C8EF"/>
<stop offset="1" stop-color="#7AF57A"/>
</linearGradient>
</defs>
</svg>
