<svg width="48" height="48" viewBox="0 0 48 48" fill="none" xmlns="http://www.w3.org/2000/svg">
<path d="M21.2344 0.1875C19.2188 0.553123 17.6438 1.11562 15.9282 2.08125C11.7094 4.45312 8.82195 8.46562 7.81882 13.3594C7.58445 14.5031 7.53757 17.4937 7.72507 18.7969C8.3157 22.7437 10.1907 26.175 13.2563 28.8656C13.8282 29.3719 14.5219 30.0187 14.7844 30.3187C15.7219 31.3406 16.4532 32.7656 16.7251 34.0781L16.8469 34.6406H24.0001H31.1532L31.2751 34.0781C31.5469 32.7656 32.2782 31.3406 33.2157 30.3187C33.4782 30.0187 34.1719 29.3719 34.7438 28.8656C37.8094 26.1656 39.6563 22.8 40.2751 18.7969C40.5001 17.2781 40.4157 14.4187 40.0969 12.975C38.6438 6.49687 33.7782 1.67812 27.2813 0.271873C25.8469 -0.0281258 22.7157 -0.0750008 21.2344 0.1875ZM25.6407 5.95312C27.4219 6.49687 28.9032 8.05312 29.3907 9.89062C29.5688 10.5937 29.5688 11.8969 29.3907 12.6C29.1938 13.3312 28.8376 14.0625 28.4063 14.6156L28.0407 15.0844L28.5282 15.3844C30.4407 16.5469 31.9594 18.5344 32.5313 20.625C32.7563 21.4406 32.9438 23.3906 32.8594 23.9437C32.7751 24.45 32.5219 24.8438 32.1376 25.0781C31.8376 25.2656 31.6594 25.2656 24.0001 25.2656C16.3407 25.2656 16.1626 25.2656 15.8626 25.0781C15.4782 24.8438 15.2251 24.45 15.1407 23.9437C15.0563 23.3906 15.2438 21.4406 15.4688 20.625C16.0407 18.5344 17.5594 16.5469 19.4719 15.3844L19.9594 15.0844L19.5938 14.6156C18.2719 12.9375 18.0844 10.425 19.1438 8.55C19.7626 7.45312 20.8969 6.4875 22.0969 6.0375C23.2407 5.60625 24.3844 5.57812 25.6407 5.95312Z" fill="url(#paint0_linear_81_27610)"/>
<path d="M22.7063 8.72812C21.6938 9.225 21.1875 10.0781 21.1875 11.25C21.1875 12.4219 21.6938 13.275 22.7063 13.7719C23.1938 14.025 23.3812 14.0625 24 14.0625C24.6188 14.0625 24.8063 14.025 25.2938 13.7719C26.3063 13.275 26.8125 12.4312 26.8125 11.2406C26.8125 9.58125 25.6594 8.4375 23.9906 8.4375C23.3813 8.4375 23.1938 8.475 22.7063 8.72812Z" fill="url(#paint1_linear_81_27610)"/>
<path d="M22.4998 17.0156C20.1373 17.6156 18.2061 19.7438 17.9342 22.05L17.8779 22.5H23.9998H30.1217L30.0654 22.0406C29.8217 19.95 28.1436 17.925 26.0436 17.175C25.4717 16.9781 25.1623 16.9313 24.1873 16.9125C23.3998 16.8938 22.8467 16.9219 22.4998 17.0156Z" fill="url(#paint2_linear_81_27610)"/>
<path d="M0.618555 2.52187C0.47793 2.61562 0.27168 2.82187 0.17793 2.9625C-0.0658203 3.32812 -0.0658203 4.17188 0.17793 4.52812C0.27168 4.67812 1.10605 5.29687 2.0248 5.91562C3.66543 7.00312 3.7123 7.03125 4.21855 7.03125C4.7998 7.03125 5.15605 6.84375 5.44668 6.4125C5.69043 6.04687 5.69043 5.20312 5.44668 4.84687C5.35293 4.69687 4.51855 4.07812 3.5998 3.45937C1.95918 2.37187 1.9123 2.34375 1.40605 2.34375C1.05918 2.34375 0.806055 2.4 0.618555 2.52187Z" fill="url(#paint3_linear_81_27610)"/>
<path d="M44.3998 3.45937C43.4811 4.07812 42.6467 4.69687 42.5529 4.84687C42.3092 5.20312 42.3092 6.04687 42.5529 6.4125C42.8436 6.84375 43.1998 7.03125 43.7811 7.03125C44.2873 7.03125 44.3342 7.00312 45.9748 5.91562C46.8936 5.29687 47.7279 4.67812 47.8217 4.52812C48.0654 4.17188 48.0654 3.32812 47.8217 2.9625C47.5311 2.53125 47.1748 2.34375 46.5936 2.34375C46.0873 2.34375 46.0404 2.37187 44.3998 3.45937Z" fill="url(#paint4_linear_81_27610)"/>
<path d="M0.61875 15.1781C0.1875 15.4688 0 15.825 0 16.4062C0 16.9875 0.1875 17.3437 0.61875 17.6344C0.8625 17.7937 1.0875 17.8125 2.8125 17.8125C4.93125 17.8125 5.05312 17.7844 5.44687 17.1937C5.69062 16.8281 5.69062 15.9844 5.44687 15.6187C5.05312 15.0281 4.93125 15 2.8125 15C1.0875 15 0.8625 15.0187 0.61875 15.1781Z" fill="url(#paint5_linear_81_27610)"/>
<path d="M42.9937 15.1781C42.5625 15.4688 42.375 15.825 42.375 16.4062C42.375 16.9875 42.5625 17.3437 42.9937 17.6344C43.2375 17.7937 43.4625 17.8125 45.1875 17.8125C47.3062 17.8125 47.4281 17.7844 47.8219 17.1937C48.0656 16.8281 48.0656 15.9844 47.8219 15.6187C47.4281 15.0281 47.3062 15 45.1875 15C43.4625 15 43.2375 15.0187 42.9937 15.1781Z" fill="url(#paint6_linear_81_27610)"/>
<path d="M2.0248 26.8969C1.10605 27.5156 0.27168 28.1344 0.17793 28.2844C-0.0658203 28.6406 -0.0658203 29.4844 0.17793 29.85C0.468555 30.2812 0.824805 30.4688 1.40605 30.4688C1.9123 30.4688 1.95918 30.4406 3.5998 29.3531C4.51855 28.7344 5.35293 28.1156 5.44668 27.9656C5.69043 27.6094 5.69043 26.7656 5.44668 26.4C5.15605 25.9688 4.7998 25.7812 4.21855 25.7812C3.7123 25.7812 3.66543 25.8094 2.0248 26.8969Z" fill="url(#paint7_linear_81_27610)"/>
<path d="M42.9936 25.9594C42.8529 26.0531 42.6467 26.2594 42.5529 26.4C42.3092 26.7656 42.3092 27.6094 42.5529 27.9656C42.6467 28.1156 43.4811 28.7344 44.3998 29.3531C46.0404 30.4406 46.0873 30.4688 46.5936 30.4688C47.1748 30.4688 47.5311 30.2812 47.8217 29.85C48.0654 29.4844 48.0654 28.6406 47.8217 28.2844C47.7279 28.1344 46.8936 27.5156 45.9748 26.8969C44.3342 25.8094 44.2873 25.7812 43.7811 25.7812C43.4342 25.7812 43.1811 25.8375 42.9936 25.9594Z" fill="url(#paint8_linear_81_27610)"/>
<path d="M16.9871 39.075C17.0152 40.65 17.0152 40.6594 17.2965 41.1187C17.4746 41.4 17.7559 41.6812 18.0371 41.8594L18.4965 42.1406H23.9996H29.5027L29.9621 41.8594C30.2434 41.6812 30.5246 41.4 30.7027 41.1187C30.984 40.6594 30.984 40.65 31.0121 39.075L31.0402 37.5H23.9996H16.959L16.9871 39.075Z" fill="url(#paint9_linear_81_27610)"/>
<path d="M19.3125 45.075C19.3125 45.2812 20.0813 46.3125 20.5312 46.7156C21.5063 47.5969 22.6125 48 24 48C25.3875 48 26.4938 47.5969 27.4688 46.7156C27.9188 46.3125 28.6875 45.2812 28.6875 45.075C28.6875 45.0375 26.5781 45 24 45C21.4219 45 19.3125 45.0375 19.3125 45.075Z" fill="url(#paint10_linear_81_27610)"/>
<defs>
<linearGradient id="paint0_linear_81_27610" x1="49.5351" y1="1.75875" x2="5.43729" y2="33.2231" gradientUnits="userSpaceOnUse">
<stop stop-color="#51C8EF"/>
<stop offset="1" stop-color="#7AF57A"/>
</linearGradient>
<linearGradient id="paint1_linear_81_27610" x1="28.3792" y1="8.72064" x2="21.0971" y2="14.2068" gradientUnits="userSpaceOnUse">
<stop stop-color="#51C8EF"/>
<stop offset="1" stop-color="#7AF57A"/>
</linearGradient>
<linearGradient id="paint2_linear_81_27610" x1="33.5319" y1="17.1885" x2="26.8526" y2="28.2044" gradientUnits="userSpaceOnUse">
<stop stop-color="#51C8EF"/>
<stop offset="1" stop-color="#7AF57A"/>
</linearGradient>
<linearGradient id="paint3_linear_81_27610" x1="7.1988" y1="2.5797" x2="0.916404" y2="8.26883" gradientUnits="userSpaceOnUse">
<stop stop-color="#51C8EF"/>
<stop offset="1" stop-color="#7AF57A"/>
</linearGradient>
<linearGradient id="paint4_linear_81_27610" x1="49.5738" y1="2.5797" x2="43.2914" y2="8.26883" gradientUnits="userSpaceOnUse">
<stop stop-color="#51C8EF"/>
<stop offset="1" stop-color="#7AF57A"/>
</linearGradient>
<linearGradient id="paint5_linear_81_27610" x1="7.19769" y1="15.1416" x2="3.70828" y2="20.4037" gradientUnits="userSpaceOnUse">
<stop stop-color="#51C8EF"/>
<stop offset="1" stop-color="#7AF57A"/>
</linearGradient>
<linearGradient id="paint6_linear_81_27610" x1="49.5727" y1="15.1416" x2="46.0833" y2="20.4037" gradientUnits="userSpaceOnUse">
<stop stop-color="#51C8EF"/>
<stop offset="1" stop-color="#7AF57A"/>
</linearGradient>
<linearGradient id="paint7_linear_81_27610" x1="7.1988" y1="26.0172" x2="0.916404" y2="31.7063" gradientUnits="userSpaceOnUse">
<stop stop-color="#51C8EF"/>
<stop offset="1" stop-color="#7AF57A"/>
</linearGradient>
<linearGradient id="paint8_linear_81_27610" x1="49.5738" y1="26.0172" x2="43.2914" y2="31.7063" gradientUnits="userSpaceOnUse">
<stop stop-color="#51C8EF"/>
<stop offset="1" stop-color="#7AF57A"/>
</linearGradient>
<linearGradient id="paint9_linear_81_27610" x1="34.9622" y1="37.7336" x2="30.3723" y2="48.2262" gradientUnits="userSpaceOnUse">
<stop stop-color="#51C8EF"/>
<stop offset="1" stop-color="#7AF57A"/>
</linearGradient>
<linearGradient id="paint10_linear_81_27610" x1="31.2987" y1="45.151" x2="28.3908" y2="51.997" gradientUnits="userSpaceOnUse">
<stop stop-color="#51C8EF"/>
<stop offset="1" stop-color="#7AF57A"/>
</linearGradient>
</defs>
</svg>
