<svg width="49" height="48" viewBox="0 0 49 48" fill="none" xmlns="http://www.w3.org/2000/svg">
<g clip-path="url(#clip0_81_27627)">
<path d="M4.57773 0.178077C2.64648 0.740577 1.14648 2.27808 0.649609 4.19058C0.452734 4.92183 0.452734 6.32808 0.649609 7.05933C1.14648 8.99058 2.75898 10.6031 4.68086 11.1C5.33711 11.2687 6.79961 11.2968 7.43711 11.1468C7.67148 11.0906 8.10273 10.9406 8.40273 10.8093L8.94648 10.5656L11.0934 12.7031L13.2309 14.8406L14.2902 13.7906L15.3496 12.7406L13.2027 10.5937L11.0652 8.44683L11.309 7.90308C11.4402 7.60308 11.5902 7.17183 11.6465 6.93745C11.7965 6.29995 11.7684 4.83745 11.5996 4.19058C11.0934 2.24058 9.50898 0.656202 7.55898 0.149952C6.79023 -0.0469227 5.30898 -0.0375481 4.57773 0.178077Z" fill="url(#paint0_linear_81_27627)"/>
<path d="M41.3279 0.1781C39.3967 0.7406 37.8967 2.2781 37.3998 4.1906C37.2123 4.91248 37.2029 6.35623 37.3904 7.05935C37.4654 7.35935 37.6342 7.79998 37.7561 8.04373L37.9904 8.5031L35.8436 10.6406L33.7061 12.7781L34.7373 13.8094L35.7592 14.85L37.9061 12.7031L40.0529 10.5656L40.5967 10.8094C40.8967 10.9406 41.3279 11.0906 41.5623 11.1469C42.1998 11.2969 43.6623 11.2687 44.3092 11.1C46.2592 10.5937 47.8436 9.00935 48.3498 7.05935C48.5467 6.3281 48.5467 4.92185 48.3498 4.1906C47.8436 2.2406 46.2592 0.656225 44.3092 0.149975C43.5404 -0.0468998 42.0592 -0.0375252 41.3279 0.1781Z" fill="url(#paint1_linear_81_27627)"/>
<path d="M22.2026 12.4688C17.4494 13.425 13.7463 17.1937 12.9213 21.9281C12.7338 22.9594 12.7432 25.0781 12.9213 26.0719C13.3713 28.4906 14.4401 30.5344 16.1557 32.2594C16.8963 33 18.1619 34.0312 18.3307 34.0312C18.3588 34.0312 18.3963 33.2812 18.4244 32.3625C18.4713 30.9 18.5088 30.6094 18.7244 29.9625C19.0338 29.0625 19.4463 28.4062 20.0932 27.8062C20.5807 27.3469 20.5901 27.3375 20.4401 27.1031C19.6994 25.9219 19.4369 25.1062 19.4369 24C19.4369 22.5938 19.9244 21.4312 20.9276 20.4281C21.9307 19.425 23.0932 18.9375 24.4994 18.9375C25.9057 18.9375 27.0682 19.425 28.0713 20.4281C29.0744 21.4312 29.5619 22.5938 29.5619 24C29.5619 25.1062 29.2994 25.9219 28.5588 27.1031C28.4088 27.3375 28.4182 27.3469 28.8869 27.7875C29.5432 28.4062 29.9744 29.0812 30.2744 29.9625C30.4901 30.6094 30.5276 30.8906 30.5744 32.3625C30.6026 33.2812 30.6401 34.0312 30.6682 34.0312C30.8369 34.0312 32.1026 33 32.8432 32.2594C35.0932 30 36.2182 27.2437 36.2182 23.9906C36.2182 20.8594 35.1682 18.1781 33.0588 15.9375C31.7838 14.5875 29.9463 13.3969 28.2494 12.8344C26.5151 12.2625 23.9744 12.1125 22.2026 12.4688Z" fill="url(#paint2_linear_81_27627)"/>
<path d="M23.0886 21.3032C21.9584 21.8741 21.4237 22.858 21.5088 24.267C21.5695 25.3238 22.0192 26.1011 22.8699 26.6356C23.4167 26.9636 23.5626 27 24.5226 27C25.4827 27 25.6285 26.9636 26.1754 26.6356C26.5399 26.4048 26.9045 26.0404 27.1354 25.676C27.4635 25.1294 27.5 24.9836 27.5 24.0241C27.5 23.0645 27.4635 22.9187 27.1354 22.3721C26.5764 21.4732 25.8108 21.0602 24.6563 21.0117C23.8542 20.9752 23.6476 21.0117 23.0886 21.3032Z" fill="url(#paint3_linear_81_27627)"/>
<path d="M22.0064 28.2534C21.6755 28.3942 21.276 28.6558 21.1277 28.837C20.5342 29.5212 20.5 29.7224 20.5 32.2581V34.6227L21.3902 34.8038C22.6569 35.0654 26.3431 35.0654 27.6098 34.8038L28.5 34.6126L28.4658 32.1273L28.4315 29.6319L28.0892 29.1388C27.8723 28.837 27.53 28.5351 27.1876 28.3439L26.6284 28.0421L24.6198 28.0119C22.6455 27.9817 22.5999 27.9917 22.0064 28.2534Z" fill="url(#paint4_linear_81_27627)"/>
<path d="M11.0746 35.3156L8.95586 37.4344L8.52461 37.2281C7.47461 36.7406 5.84336 36.6 4.69023 36.9C2.74023 37.4062 1.15586 38.9906 0.649609 40.9406C0.452734 41.6719 0.452734 43.0781 0.649609 43.8094C1.14648 45.7406 2.75898 47.3531 4.68086 47.85C5.42148 48.0375 6.81836 48.0469 7.55898 47.85C9.50898 47.3437 11.0934 45.7594 11.5996 43.8094C11.7684 43.1625 11.7965 41.7 11.6465 41.0625C11.5902 40.8281 11.4402 40.3969 11.309 40.0969L11.0652 39.5531L13.2027 37.4062L15.3496 35.2594L14.309 34.2281C13.7371 33.6562 13.259 33.1875 13.2402 33.1875C13.2215 33.1875 12.2465 34.1437 11.0746 35.3156Z" fill="url(#paint5_linear_81_27627)"/>
<path d="M34.6811 34.2281L33.6592 35.2594L35.7967 37.4062L37.9342 39.5531L37.6904 40.0969C37.3529 40.8562 37.2592 41.3531 37.2498 42.3656C37.2498 43.9875 37.7654 45.2625 38.8811 46.3594C40.0154 47.4844 41.2717 48 42.8748 48C44.4873 48 45.7623 47.475 46.8686 46.3687C47.9748 45.2625 48.4998 43.9875 48.4998 42.375C48.4998 40.7625 47.9748 39.4875 46.8686 38.3812C45.7529 37.2656 44.4779 36.75 42.8654 36.75C41.8529 36.7594 41.3561 36.8531 40.5967 37.1906L40.0529 37.4344L37.9248 35.3156C36.7529 34.1437 35.7779 33.1875 35.7498 33.1875C35.7217 33.1969 35.2436 33.6562 34.6811 34.2281Z" fill="url(#paint6_linear_81_27627)"/>
</g>
<defs>
<linearGradient id="paint0_linear_81_27627" x1="19.485" y1="0.755564" x2="0.278528" y2="15.2411" gradientUnits="userSpaceOnUse">
<stop stop-color="#51C8EF"/>
<stop offset="1" stop-color="#7AF57A"/>
</linearGradient>
<linearGradient id="paint1_linear_81_27627" x1="52.6172" y1="0.75606" x2="33.4221" y2="15.1691" gradientUnits="userSpaceOnUse">
<stop stop-color="#51C8EF"/>
<stop offset="1" stop-color="#7AF57A"/>
</linearGradient>
<linearGradient id="paint2_linear_81_27627" x1="42.7451" y1="13.3719" x2="14.0727" y2="36.641" gradientUnits="userSpaceOnUse">
<stop stop-color="#51C8EF"/>
<stop offset="1" stop-color="#7AF57A"/>
</linearGradient>
<linearGradient id="paint3_linear_81_27627" x1="29.1711" y1="21.302" x2="21.4036" y2="27.1539" gradientUnits="userSpaceOnUse">
<stop stop-color="#51C8EF"/>
<stop offset="1" stop-color="#7AF57A"/>
</linearGradient>
<linearGradient id="paint4_linear_81_27627" x1="30.7282" y1="28.3523" x2="21.4049" y2="36.3798" gradientUnits="userSpaceOnUse">
<stop stop-color="#51C8EF"/>
<stop offset="1" stop-color="#7AF57A"/>
</linearGradient>
<linearGradient id="paint5_linear_81_27627" x1="19.485" y1="33.9328" x2="0.301948" y2="48.425" gradientUnits="userSpaceOnUse">
<stop stop-color="#51C8EF"/>
<stop offset="1" stop-color="#7AF57A"/>
</linearGradient>
<linearGradient id="paint6_linear_81_27627" x1="52.6333" y1="33.9331" x2="33.4472" y2="48.415" gradientUnits="userSpaceOnUse">
<stop stop-color="#51C8EF"/>
<stop offset="1" stop-color="#7AF57A"/>
</linearGradient>
<clipPath id="clip0_81_27627">
<rect width="48" height="48" fill="white" transform="translate(0.5)"/>
</clipPath>
</defs>
</svg>
